<mxfile host="app.diagrams.net" agent="Mozilla/5.0 (Windows NT 10.0; Win64; x64; rv:136.0) Gecko/20100101 Firefox/136.0" version="26.1.1">
  <diagram name="PÃ¡gina-1" id="K5pJ4dV5SGSF8PqALdQ8">
    <mxGraphModel dx="1050" dy="558" grid="1" gridSize="10" guides="1" tooltips="1" connect="1" arrows="1" fold="1" page="1" pageScale="1" pageWidth="827" pageHeight="1169" math="0" shadow="0">
      <root>
        <mxCell id="0" />
        <mxCell id="1" parent="0" />
        <mxCell id="QEXOoDVEJHedNCT-hzpl-3" value="" style="edgeStyle=orthogonalEdgeStyle;rounded=0;orthogonalLoop=1;jettySize=auto;html=1;" edge="1" parent="1" source="QEXOoDVEJHedNCT-hzpl-1" target="QEXOoDVEJHedNCT-hzpl-2">
          <mxGeometry relative="1" as="geometry" />
        </mxCell>
        <mxCell id="QEXOoDVEJHedNCT-hzpl-1" value="&lt;div&gt;Inicio&lt;/div&gt;" style="rounded=1;whiteSpace=wrap;html=1;" vertex="1" parent="1">
          <mxGeometry x="140" y="240" width="120" height="60" as="geometry" />
        </mxCell>
        <mxCell id="QEXOoDVEJHedNCT-hzpl-5" value="" style="edgeStyle=orthogonalEdgeStyle;rounded=0;orthogonalLoop=1;jettySize=auto;html=1;" edge="1" parent="1" source="QEXOoDVEJHedNCT-hzpl-2" target="QEXOoDVEJHedNCT-hzpl-4">
          <mxGeometry relative="1" as="geometry" />
        </mxCell>
        <mxCell id="QEXOoDVEJHedNCT-hzpl-6" style="edgeStyle=orthogonalEdgeStyle;rounded=0;orthogonalLoop=1;jettySize=auto;html=1;exitX=1;exitY=0.5;exitDx=0;exitDy=0;" edge="1" parent="1" source="QEXOoDVEJHedNCT-hzpl-2" target="QEXOoDVEJHedNCT-hzpl-7">
          <mxGeometry relative="1" as="geometry">
            <mxPoint x="520" y="320" as="targetPoint" />
          </mxGeometry>
        </mxCell>
        <mxCell id="QEXOoDVEJHedNCT-hzpl-2" value="&lt;div&gt;Commit 1&lt;/div&gt;" style="whiteSpace=wrap;html=1;rounded=1;" vertex="1" parent="1">
          <mxGeometry x="340" y="240" width="120" height="60" as="geometry" />
        </mxCell>
        <mxCell id="QEXOoDVEJHedNCT-hzpl-4" value="Commit 2" style="whiteSpace=wrap;html=1;rounded=1;" vertex="1" parent="1">
          <mxGeometry x="530" y="200" width="120" height="60" as="geometry" />
        </mxCell>
        <mxCell id="QEXOoDVEJHedNCT-hzpl-7" value="Commit 3" style="rounded=1;whiteSpace=wrap;html=1;" vertex="1" parent="1">
          <mxGeometry x="530" y="280" width="120" height="60" as="geometry" />
        </mxCell>
      </root>
    </mxGraphModel>
  </diagram>
</mxfile>
